# xmcd CD database file
#
# Track frame offsets:
#	150
#	23935
#	52585
#	87010
#	105985
#	136360
#	159160
#	180310
#	204235
#	226810
#	250585
#	278335
#
# Disc length: 3957 seconds
#
# Revision: 0
# Processed by: cddbd v1.5.2PL0 Copyright (c) Steve Scherf et al.
# Submitted via: CDex 1.70beta2
#
DISCID=790f730c
DTITLE=The Bruce Katz Band - Live! At The Firefly
DYEAR=2008
DGENRE=Jazz
TTITLE0=Deep Pockets
TTITLE1=Better Get It In Your Soul
TTITLE2=The Blue Lamp
TTITLE3=Jump Start
TTITLE4=Ice Cream Man
TTITLE5=Southern Route
TTITLE6=Bugged Out
TTITLE7=Marshall County
TTITLE8=Crew Of Two
TTITLE9=Norton's Boogie
TTITLE10=Victoria
TTITLE11=Brother Steve
EXTD=YEAR: 2008
EXTT0=
EXTT1=
EXTT2=
EXTT3=
EXTT4=
EXTT5=
EXTT6=
EXTT7=
EXTT8=
EXTT9=
EXTT10=
EXTT11=
PLAYORDER=
